<svg width="121" height="121" viewBox="0 0 121 121" fill="none" xmlns="http://www.w3.org/2000/svg">
<path d="M119.873 60.9868C120.104 28.2367 93.7427 1.49988 60.9926 1.26852C28.2425 1.03716 1.50575 27.3988 1.27439 60.1489C1.04302 92.899 27.4047 119.636 60.1548 119.867C92.9049 120.099 119.642 93.7369 119.873 60.9868Z" fill="#003B73"/>
<g clip-path="url(#clip0)">
<path d="M58.6591 52.0649L56.5107 49.9317L74.1071 32.4597C76.767 29.8186 79.6316 28.5996 82.7007 28.5996C87.8159 28.7012 91.6012 32.6629 91.7035 32.866L89.4528 34.8976C89.4528 34.8976 86.486 31.7486 82.5984 31.647C80.45 31.647 78.3016 32.5613 76.3578 34.5929L58.6591 52.0649Z" fill="#FF7F00"/>
<path d="M40.858 66.1843C38.505 66.1843 36.3566 65.2701 34.7197 63.6448C33.0829 62.0195 32.1621 59.8863 32.1621 57.5499C32.1621 55.2136 33.0829 53.0803 34.7197 51.455L35.3335 50.8456L52.0092 54.1977L70.8332 35.71L72.9816 37.8432L46.9963 63.6448C45.3594 65.2701 43.211 66.1843 40.858 66.1843ZM36.4589 54.2993C35.7428 55.2135 35.3335 56.4325 35.3335 57.6515C35.3335 59.1752 35.9474 60.4958 36.9704 61.6132C39.1188 63.7464 42.6995 63.7464 44.8479 61.6132L49.4516 57.042L36.4589 54.2993Z" fill="#FF7F00"/>
<path d="M96.8181 56.8395H93.749C93.749 52.8778 90.4752 49.6272 86.4853 49.6272C84.4392 49.6272 82.4955 50.4398 81.0632 51.9636L78.8125 49.9319C80.7563 47.7987 83.5185 46.5798 86.4853 46.5798C92.2144 46.4782 96.8181 51.1509 96.8181 56.8395Z" fill="#FFCFA1"/>
<path d="M54.1574 37.1328C49.5537 37.1328 45.6661 39.9771 44.1315 44.0403C41.9831 42.3135 39.2209 41.3992 36.4587 41.3992C29.502 41.3992 23.9775 46.9862 23.9775 53.7921H27.0467C27.0467 48.6115 31.2412 44.4467 36.4587 44.4467C39.1186 44.4467 41.6762 45.5641 43.4154 47.4941H43.5177C43.5177 47.5957 43.5177 47.5957 43.5177 47.6973H46.5868C46.5868 43.5324 49.9629 40.1802 54.1574 40.1802C56.3058 40.1802 58.3518 41.0945 59.7841 42.6182L62.0348 40.5866C59.9887 38.4534 57.1242 37.1328 54.1574 37.1328Z" fill="#FFCFA1"/>
<path d="M87.304 36.8274L85.3602 35.5068L73.5952 47.1887L73.4929 59.0737C73.4929 63.6448 72.5721 68.0128 66.4339 69.2318V50.744L63.3647 53.7915V57.3468L55.5896 65.067C53.3389 67.3018 50.679 67.9112 47.3029 66.7938L45.2568 69.3334C47.0983 70.0444 48.7352 70.3492 50.3721 70.3492C53.1343 70.3492 55.5896 69.3334 57.738 67.2002L63.3647 61.6132V72.584L65.1039 72.3808C76.562 71.365 76.562 62.0195 76.562 59.0737L76.6643 48.5092L87.8155 37.3353L87.304 36.8274Z" fill="#46B1FF"/>
</g>
<g clip-path="url(#clip1)">
<path d="M25.4663 83.7261H22.4855V85.0407H25.1682V87.0632H22.4855V89.9958H20.2002V81.6025H25.4663V83.7261Z" fill="white"/>
<path d="M29.1425 87.9733H32.1233V90.0969H26.7578V81.6025H29.1425V87.9733Z" fill="white"/>
<path d="M39.4757 81.6025L36.5942 86.7599V90.0969H34.2096V86.7599L31.3281 81.6025H33.9115L35.4019 84.6363L36.8923 81.6025H39.4757Z" fill="white"/>
<path d="M42.6554 87.9733H45.6362V90.0969H40.3701V81.6025H42.6554V87.9733Z" fill="white"/>
<path d="M52.6906 89.3891C51.9951 89.9958 51.1008 90.4003 50.1072 90.4003C49.0143 90.4003 48.12 90.0969 47.5239 89.3891C46.8284 88.7823 46.5303 87.8722 46.5303 86.861V81.6025H48.9149V86.7599C48.9149 87.1643 49.0143 87.4677 49.3124 87.7711C49.5111 87.9733 49.9085 88.1756 50.2066 88.1756C50.604 88.1756 50.9021 88.0745 51.1008 87.7711C51.2996 87.5688 51.4983 87.1643 51.4983 86.7599V81.6025H53.8829V86.7599C53.6842 87.8722 53.3861 88.6812 52.6906 89.3891Z" fill="white"/>
<path d="M60.5398 81.6025H62.7257V90.0969H60.8379L57.559 85.4452V90.0969H55.373V81.6025H57.3602L60.5398 86.052V81.6025Z" fill="white"/>
<path d="M68.3901 90.2993C67.0985 90.2993 66.1049 89.8948 65.2106 88.9847C64.4157 88.1757 63.9189 87.1644 63.9189 85.8498C63.9189 84.5352 64.3164 83.524 65.2106 82.6139C66.1049 81.8049 67.0985 81.4004 68.3901 81.4004C69.4831 81.4004 70.3773 81.7038 71.1722 82.4116C71.9671 83.1195 72.4639 83.9285 72.5633 85.0408H70.278C70.1786 84.7375 70.0793 84.4341 69.8805 84.2319C69.6818 84.0296 69.4831 83.8274 69.185 83.7262C68.8869 83.6251 68.6882 83.524 68.3901 83.524C67.794 83.524 67.2972 83.7262 66.8997 84.1307C66.5023 84.5352 66.3036 85.142 66.3036 85.7487C66.3036 86.1532 66.4029 86.5577 66.6017 86.8611C66.8004 87.1644 66.9991 87.4678 67.2972 87.6701C67.5953 87.8723 67.9927 87.9734 68.3901 87.9734C68.6882 87.9734 68.9863 87.8723 69.185 87.7712C69.4831 87.6701 69.6818 87.4678 69.8805 87.2656C70.0793 87.0633 70.1786 86.76 70.278 86.4566H72.6626C72.4639 87.5689 72.0665 88.4791 71.2716 89.1869C70.4767 89.9959 69.4831 90.2993 68.3901 90.2993Z" fill="white"/>
<path d="M78.6238 81.6025H80.9091V90.0969H78.6238V86.861H76.1398V90.0969H73.8545V81.6025H76.1398V84.6363H78.6238V81.6025Z" fill="white"/>
<path d="M82.499 90.0972V87.9736H84.6849V90.0972H82.499Z" fill="white"/>
<path d="M90.7456 90.0969L89.3546 87.4677H88.5597V90.0969H86.2744V81.6025H89.8514C90.4475 81.6025 90.9443 81.7037 91.4411 82.007C91.9379 82.2093 92.236 82.6138 92.5341 83.1194C92.8322 83.625 92.9315 84.1306 92.9315 84.6363C92.9315 84.9396 92.8322 85.3441 92.7328 85.6475C92.7328 85.8497 92.5341 86.1531 92.3354 86.4565C92.1367 86.7599 91.9379 86.861 91.6399 87.0632L93.329 90.1981H90.7456V90.0969ZM88.5597 83.7261V85.5464H89.6527C89.9507 85.5464 90.2488 85.4452 90.3482 85.243C90.5469 85.0407 90.6463 84.8385 90.6463 84.5351C90.6463 84.3329 90.6463 84.2318 90.5469 84.0295C90.4475 83.9284 90.3482 83.8273 90.1495 83.7261C89.9507 83.625 89.8514 83.625 89.6527 83.625H88.5597V83.7261Z" fill="white"/>
<path d="M100.484 89.3891C99.7881 89.9958 98.8938 90.4003 97.9002 90.4003C96.9066 90.4003 95.913 90.0969 95.3168 89.3891C94.6213 88.7823 94.3232 87.8722 94.3232 86.861V81.6025H96.7079V86.7599C96.7079 87.1643 96.8072 87.4677 97.1053 87.7711C97.304 87.9733 97.7015 88.1756 97.9996 88.1756C98.397 88.1756 98.6951 88.0745 98.8938 87.7711C99.0925 87.4677 99.2912 87.1643 99.2912 86.7599V81.6025H101.676V86.7599C101.477 87.8722 101.179 88.6812 100.484 89.3891Z" fill="white"/>
</g>
<defs>
<clipPath id="clip0">
<rect width="73.2" height="44.4" fill="white" transform="translate(23.7998 28.5996)"/>
</clipPath>
<clipPath id="clip1">
<rect width="81.4753" height="9" fill="white" transform="translate(20.2002 81.4004)"/>
</clipPath>
</defs>
</svg>