<svg width="96" height="96" fill="none" xmlns="http://www.w3.org/2000/svg"><path d="M58.034 30.308c.303-.442 7.067-10.833-4.253-20.294l1.185-1.418c12.443 10.38 4.895 22.275 4.61 22.722l-.007.013-1.535-1.023z" fill="#003B73"/><path fill-rule="evenodd" clip-rule="evenodd" d="M20.214 63.898c6.88 3.626 13.017 8.461 16.83 11.483 1.348 1.07 2.44 1.93 3.184 2.441 4.928 3.394 9.368 3.696 11.902.837a6.068 6.068 0 0 0 1.488-4.23c-2.255.255-4.766-.489-6.904-2.814-.907-.953-1.232-2.068-.907-3.045.28-.837.953-1.418 1.883-1.65 1.79-.395 4.022.72 6.114 3.091.558.651 1 1.372 1.301 2.186a6.736 6.736 0 0 0 1.72-1.023c2.325-1.906 2.511-4.324 1.674-6.184-2.394.721-5.16.465-7.601-1.51-.953-.768-1.348-1.814-1.116-2.836.256-1.047 1.116-1.814 2.325-2.046 1.069-.233 3.858-.233 7.16 4.091a7.317 7.317 0 0 0 1.882-1.464c1.697-1.883 2.464-4.882-.302-7.741-2.51.93-5.253.976-7.276-.395-1.07-.744-1.604-1.697-1.464-2.674.14-.837.744-1.534 1.673-1.813 1.604-.534 4.324-.046 7.439 2.743a8.925 8.925 0 0 0 2.766-2.162c1.163-1.348 2.627-4.16-.511-7.438-2.673-2.767-6.346-3.603-8.973-3.813a23.417 23.417 0 0 0-4.23.047c-2.232 3.208-4.906 5.323-7.067 5.625-1.418.21-2.58-.395-3.139-1.65-.279-.604-.465-1.813 1.465-3.138 1.51-1.046 4.37-2.092 7.671-2.557 1.674-2.557 3.092-5.881 3.65-9.461 1.022-6.509-2.302-11.74-6.044-13.994-3.348-2-7.067-2-10.112-.023.025.058.05.122.076.19.047.12.097.248.156.367l.025.062c.976 2.454 2.157 5.425 2.777 8.605 1.095-.09 1.966-.567 2.522-1.39.976-1.442.836-3.673-.35-6.16l1.651-.814c1.488 3.068 1.581 5.997.233 7.996-.85 1.264-2.188 2.038-3.77 2.198.444 3.796-.077 7.798-2.785 11.517-4.882 6.695-12.553 7.3-12.855 7.323h-.004c-.355.027-7.294.563-12.595-3.766l1.162-1.441c4.742 3.858 11.227 3.37 11.297 3.347.093 0 7.183-.581 11.53-6.555 4.877-6.689 1.633-14.816-.529-20.232l-.006-.015c-.162-.442-.325-.837-.487-1.232l-.257-.675.558-.418c3.79-2.813 8.532-2.999 12.67-.488 5.137 3.092 7.903 9.484 6.927 15.854-.512 3.254-1.697 6.346-3.185 8.95 4.649-.233 9.786.766 13.296 4.416 3.022 3.115 3.232 6.81.605 9.902-.744.884-1.72 1.674-2.813 2.302 2.162 2.58 2.952 6.439-.07 9.786-.627.72-1.418 1.325-2.278 1.813 1.093 2.488.86 5.788-2.185 8.322-.72.581-1.557 1.093-2.487 1.418.186 2.046-.488 4.208-1.953 5.858-1.209 1.348-5.811 5.347-14.342-.534a75.517 75.517 0 0 1-2.266-1.71L35.95 76.8c-3.766-2.975-9.833-7.74-16.528-11.274-.07-.302.233-.93.79-1.627zm31.66 6.741c-1.673-1.674-3.068-2.092-3.812-1.953-.186.047-.418.14-.511.372-.07.256.023.721.511 1.256 1.627 1.766 3.487 2.37 5.184 2.255a4.292 4.292 0 0 0-.837-1.395l-.535-.535zm4.603-8.322c-1.65-1.65-3.138-2.115-4.068-1.93-.465.094-.814.35-.86.675-.07.302.093.65.488.953 1.697 1.371 3.65 1.697 5.37 1.325l-.065-.075c-.301-.343-.583-.666-.865-.948zm-8.95-23.966a23.97 23.97 0 0 0-2.394.674c-2.604.93-3.464 1.883-3.487 2.139.163.348.442.674 1.209.557 1.302-.139 3.022-1.394 4.672-3.37zm11.646 13.692c-2.347-1.837-4.137-2-4.904-1.744-.256.07-.419.233-.442.349-.023.163.163.534.697.883 1.186.814 2.93.93 4.65.512z" fill="#003B73"/><path d="M48.83 88.097l-.42 1.813c3.534.79 6.974-.233 9.439-2.976 2.58-2.766 3.65-6.81 2.65-10.042l-1.767.558c.813 2.58-.116 5.974-2.232 8.275-1.185 1.279-3.742 3.278-7.67 2.372zM17.47 32.981l-.79 1.674c3.673 1.767 9.392 1.953 14.436-2.813l-1.255-1.348c-4.394 4.114-9.275 3.975-12.39 2.487z" fill="#003B73"/></svg>